<svg display="none" xmlns="http://www.w3.org/2000/svg">

  <symbol id="logo" viewBox="0 0 250 60">
    <path d="M237.919,101.4l28.619-.252-20.555-35.19-16.792,29.93-4.52.04,19.305-33.566-3.229-5.527L215,101.6l17.439-.153L246.08,77.136l10.81,18.508-16.649.146Zm44.757,5.589L251.367,53.225l0.37-.219,31.31,53.763Zm2.808-33.178V73.759a9.528,9.528,0,0,1,19.055-.052v0.052A9.528,9.528,0,0,1,285.484,73.811Zm14.051,0V73.759a4.672,4.672,0,0,0-4.549-4.912,4.582,4.582,0,0,0-4.473,4.859v0.052a4.667,4.667,0,0,0,4.524,4.912A4.586,4.586,0,0,0,299.535,73.811Zm10.089-9.147H314.2l7.278,9.615V64.664h4.852V82.854h-4.3l-7.556-9.979v9.979h-4.852V64.664Zm26.691,4.418h-5.307V64.664h15.517v4.418h-5.307V82.854h-4.9V69.081Zm14.99-4.418h4.929V82.854h-4.929V64.664Zm10.086,9.147V73.759a9.216,9.216,0,0,1,9.325-9.459,8.589,8.589,0,0,1,7.506,3.794l-3.69,2.936a4.7,4.7,0,0,0-3.866-2.131c-2.476,0-4.22,2.157-4.22,4.807v0.052c0,2.729,1.744,4.86,4.22,4.86a4.8,4.8,0,0,0,3.993-2.209l3.69,2.7a8.857,8.857,0,0,1-7.835,4.106A9.112,9.112,0,0,1,361.391,73.811Zm21.586-9.147h14.229v4.288H387.83v2.754h8.491v3.976H387.83v2.885h9.5v4.288H382.977V64.664Zm19.388,0h4.9V78.437h8.567v4.418h-13.47V64.664Zm18.1,0h4.9V78.437h8.568v4.418h-13.47V64.664Zm16.481,9.147V73.759A9.528,9.528,0,0,1,456,73.707v0.052A9.528,9.528,0,0,1,436.945,73.811Zm14.051,0V73.759a4.672,4.672,0,0,0-4.549-4.912,4.582,4.582,0,0,0-4.473,4.859v0.052a4.667,4.667,0,0,0,4.524,4.912A4.586,4.586,0,0,0,451,73.811ZM266.424,78.482V72.459l4.5,7.069h0.1l4.524-7.121V82.854h4.877V64.664h-5.181l-4.22,7.042-4.22-7.042h-5.181v5.574Zm20.07,14.225h0.678v6.061h-0.678V92.707Zm5.875,0h0.636l3.786,4.857V92.707h0.661v6.061h-0.541L293.03,93.8v4.97h-0.661V92.707Zm11.811,0.631h-2.018V92.707h4.722v0.631h-2.018v5.429H304.18V93.338Zm7.414-.631h4.345V93.33h-3.666V95.4h3.279v0.623h-3.279v2.121h3.708v0.624h-4.387V92.707Zm9.191,0h2.585a2.358,2.358,0,0,1,1.708.606,1.685,1.685,0,0,1,.463,1.194v0.017a1.767,1.767,0,0,1-1.63,1.766l1.845,2.477h-0.833l-1.742-2.355h-1.717v2.355h-0.679V92.707Zm2.524,3.091a1.335,1.335,0,0,0,1.545-1.246V94.533a1.279,1.279,0,0,0-1.536-1.2h-1.854V95.8h1.845Zm7.123-3.091h0.636l3.786,4.857V92.707h0.661v6.061h-0.541l-3.881-4.97v4.97h-0.661V92.707Zm12.446-.044h0.635l2.739,6.1h-0.73l-0.7-1.6h-3.271l-0.713,1.6h-0.695Zm1.674,3.888-1.365-3.092-1.374,3.092h2.739Zm7.14-3.213h-2.018V92.707H354.4v0.631h-2.018v5.429h-0.686V93.338Zm7.475-.631h0.677v6.061h-0.677V92.707Zm5.609,3.047V95.737a3.066,3.066,0,1,1,6.13-.018v0.018A3.066,3.066,0,1,1,364.776,95.754Zm5.426,0V95.737a2.4,2.4,0,0,0-2.37-2.5,2.372,2.372,0,0,0-2.352,2.485v0.018a2.4,2.4,0,0,0,2.37,2.5A2.372,2.372,0,0,0,370.2,95.754Zm5.577-3.047h0.636l3.786,4.857V92.707h0.661v6.061h-0.541L376.44,93.8v4.97h-0.661V92.707Zm12.446-.044h0.636l2.738,6.1H390.87l-0.7-1.6H386.9l-0.713,1.6h-0.695Zm1.675,3.888-1.366-3.092-1.373,3.092H389.9Zm6.324-3.844H396.9v5.428h3.382v0.633h-4.061V92.707Zm14.5,3.047V95.737a3.03,3.03,0,0,1,3.013-3.135,3.146,3.146,0,0,1,2.24.806l-0.437.519a2.549,2.549,0,0,0-1.828-.692,2.359,2.359,0,0,0-2.285,2.485v0.018a2.334,2.334,0,0,0,2.379,2.519,2.817,2.817,0,0,0,1.734-.606V96.143h-1.828V95.529h2.48v2.415a3.621,3.621,0,0,1-2.413.926A2.959,2.959,0,0,1,410.725,95.754Zm10.436-3.047h2.585a2.358,2.358,0,0,1,1.708.606,1.682,1.682,0,0,1,.464,1.194v0.017a1.767,1.767,0,0,1-1.631,1.766l1.845,2.477H425.3l-1.742-2.355H421.84v2.355h-0.679V92.707Zm2.524,3.091a1.336,1.336,0,0,0,1.546-1.246V94.533a1.28,1.28,0,0,0-1.537-1.2H421.84V95.8h1.845Zm6.857-.044V95.737a3.065,3.065,0,1,1,6.129-.018v0.018A3.065,3.065,0,1,1,430.542,95.754Zm5.425,0V95.737a2.4,2.4,0,0,0-2.369-2.5,2.372,2.372,0,0,0-2.353,2.485v0.018a2.4,2.4,0,0,0,2.37,2.5A2.372,2.372,0,0,0,435.967,95.754Zm5.484,0.476V92.707h0.678v3.48a1.777,1.777,0,0,0,1.837,2.043,1.736,1.736,0,0,0,1.812-2V92.707h0.678v3.472A2.507,2.507,0,1,1,441.451,96.231Zm10.05-3.523h2.25A1.961,1.961,0,0,1,456,94.629v0.017a2.078,2.078,0,0,1-2.361,1.983H452.18v2.139H451.5V92.707Zm2.164,3.3a1.429,1.429,0,0,0,1.648-1.334V94.655a1.362,1.362,0,0,0-1.614-1.316H452.18V96h1.485Z" transform="translate(-215 -53)"/>
 </symbol>

  <symbol id="facebook" viewBox="0 0 25 25">
    <path fill-rule="evenodd" d="M1.694,14.242 L4.640,14.242 L4.640,7.184 L6.626,7.184 L6.884,4.689 L4.640,4.689 L4.640,3.222 C4.640,2.674 5.007,2.545 5.265,2.545 L6.847,2.545 L6.847,0.123 L4.666,0.115 C2.245,0.115 1.694,1.922 1.694,3.076 L1.694,4.689 L0.295,4.689 L0.295,7.184 L1.694,7.184 L1.694,14.242 Z" />
  </symbol>
  
  <symbol id="twitter" viewBox="0 0 25 25">
    <path fill-rule="evenodd" d="M0.833,10.164 C2.120,10.986 3.647,11.465 5.292,11.465 C10.642,11.465 13.569,7.049 13.569,3.218 C13.569,3.094 13.566,2.968 13.559,2.844 C14.130,2.435 14.622,1.925 15.012,1.343 C14.490,1.576 13.930,1.730 13.341,1.799 C13.942,1.443 14.401,0.873 14.620,0.197 C14.058,0.529 13.434,0.769 12.772,0.900 C12.243,0.338 11.485,-0.014 10.649,-0.014 C9.042,-0.014 7.741,1.283 7.741,2.883 C7.741,3.109 7.766,3.330 7.815,3.543 C5.398,3.421 3.253,2.269 1.819,0.515 C1.569,0.945 1.426,1.441 1.426,1.972 C1.426,2.978 1.939,3.865 2.720,4.384 C2.242,4.371 1.794,4.240 1.401,4.023 L1.401,4.058 C1.401,5.462 2.405,6.635 3.735,6.900 C3.492,6.968 3.234,7.002 2.969,7.002 C2.781,7.002 2.599,6.984 2.422,6.951 C2.792,8.103 3.866,8.941 5.139,8.963 C4.143,9.740 2.891,10.203 1.526,10.203 C1.291,10.203 1.061,10.191 0.833,10.164 Z" />
  </symbol>

  <symbol id="instagram" viewBox="0 0 25 25">
    <path class="st0" d="M11.8,1C13.6,1,15,2.4,15,4.2v7.7c0,1.7-1.4,3.1-3.1,3.1H4.2C2.4,15,1,13.6,1,11.8V4.2C1,2.4,2.4,1,4.2,1H11.8
    M11.8,0H4.2C1.9,0,0,1.9,0,4.2v7.7C0,14.1,1.9,16,4.2,16h7.7c2.3,0,4.2-1.9,4.2-4.2V4.2C16,1.9,14.1,0,11.8,0z"></path>
    <path class="st0" d="M8,4.9c1.7,0,3.1,1.4,3.1,3.1S9.7,11.1,8,11.1S4.9,9.7,4.9,8S6.3,4.9,8,4.9 M8,3.9C5.7,3.9,3.9,5.7,3.9,8
    s1.8,4.1,4.1,4.1s4.1-1.8,4.1-4.1S10.3,3.9,8,3.9z"></path>
    <circle class="st0" cx="12.3" cy="3.7" r="0.9"></circle>
  </symbol>
   
  <symbol id="scroll" viewBox="0 0 40 40">
    <path fill-rule="evenodd" d="M4.125,4.651 L0.750,1.276 L1.594,0.432 L7.500,6.339 L13.406,0.362 L14.250,1.206 L7.500,8.026 L6.656,7.183 L4.125,4.651 Z" />
  </symbol>

  <symbol id="marker" viewBox="0 0 80 80">
    <path d="M66.9,41.8c0-11.3-9.1-20.4-20.4-20.4c-11.3,0-20.4,9.1-20.4,20.4c0,11.3,20.4,32.4,20.4,32.4S66.9,53.1,66.9,41.8z    M37,41.4c0-5.2,4.3-9.5,9.5-9.5c5.2,0,9.5,4.2,9.5,9.5c0,5.2-4.2,9.5-9.5,9.5C41.3,50.9,37,46.6,37,41.4z"/>
  </symbol>

  <symbol id="tel" viewBox="0 0 578.106 578.106">
    <path d="M577.83,456.128c1.225,9.385-1.635,17.545-8.568,24.48l-81.396,80.781
			c-3.672,4.08-8.465,7.551-14.381,10.404c-5.916,2.857-11.729,4.693-17.439,5.508c-0.408,0-1.635,0.105-3.676,0.309
			c-2.037,0.203-4.689,0.307-7.953,0.307c-7.754,0-20.301-1.326-37.641-3.979s-38.555-9.182-63.645-19.584
			c-25.096-10.404-53.553-26.012-85.376-46.818c-31.823-20.805-65.688-49.367-101.592-85.68
			c-28.56-28.152-52.224-55.08-70.992-80.783c-18.768-25.705-33.864-49.471-45.288-71.299
			c-11.425-21.828-19.993-41.616-25.705-59.364S4.59,177.362,2.55,164.51s-2.856-22.95-2.448-30.294
			c0.408-7.344,0.612-11.424,0.612-12.24c0.816-5.712,2.652-11.526,5.508-17.442s6.324-10.71,10.404-14.382L98.022,8.756
			c5.712-5.712,12.24-8.568,19.584-8.568c5.304,0,9.996,1.53,14.076,4.59s7.548,6.834,10.404,11.322l65.484,124.236
			c3.672,6.528,4.692,13.668,3.06,21.42c-1.632,7.752-5.1,14.28-10.404,19.584l-29.988,29.988c-0.816,0.816-1.53,2.142-2.142,3.978
			s-0.918,3.366-0.918,4.59c1.632,8.568,5.304,18.36,11.016,29.376c4.896,9.792,12.444,21.726,22.644,35.802
			s24.684,30.293,43.452,48.653c18.36,18.77,34.68,33.354,48.96,43.76c14.277,10.4,26.215,18.053,35.803,22.949
			c9.588,4.896,16.932,7.854,22.031,8.871l7.648,1.531c0.816,0,2.145-0.307,3.979-0.918c1.836-0.613,3.162-1.326,3.979-2.143
			l34.883-35.496c7.348-6.527,15.912-9.791,25.705-9.791c6.938,0,12.443,1.223,16.523,3.672h0.611l118.115,69.768
			C571.098,441.238,576.197,447.968,577.83,456.128z"/>
  </symbol>

  <symbol id="mail" viewBox="0 0 485.213 485.212">
    <path d="M424.562,136.467v-45.49L333.587,0H60.652v136.467L0.001,181.955v303.257h485.211V181.955L424.562,136.467z
		 M424.562,174.374l17.772,13.327l-17.772,13.978V174.374z M303.256,30.327v90.978h90.98V225.49l-95.829,75.312l-55.8-47.833
		l-55.795,47.801l-95.834-75.28V30.327H303.256z M60.652,174.374v27.305l-17.768-13.978L60.652,174.374z M30.328,216.396
		L163.33,320.909L30.328,434.925V216.396z M53.637,454.886l188.97-161.99l188.975,161.99H53.637z M454.89,434.925L321.887,320.909
		L454.89,216.396V434.925z"/>
  </symbol>

  <symbol id="clock" viewBox="0 0 30 30">
    <path d="m15,4c-0.553,0-1,0.447-1,1v9h-5c-0.553,0-1,0.447-1,1 0,0.553 0.447,1 1,1h6c0.553,0 1-0.447 1-1v-10c0-0.553-0.447-1-1-1zm0-4c-8.284,0-15,6.716-15,15s6.716,15 15,15 15-6.716 15-15-6.716-15-15-15zm0,28c-7.18,0-13-5.82-13-13s5.82-13 13-13 13,5.82 13,13-5.82,13-13,13z"/>
  </symbol>

  </svg>
